<svg width="513" height="50" viewBox="0 0 513 50" fill="none" xmlns="http://www.w3.org/2000/svg">
<path d="M502.865 42.89H502.41C501.543 44.9267 500.33 46.595 498.77 47.895C497.253 49.1517 495.152 49.78 492.465 49.78C490.602 49.78 488.89 49.4334 487.33 48.74C485.813 48.0467 484.492 46.985 483.365 45.555C482.282 44.125 481.415 42.305 480.765 40.095C480.158 37.885 479.855 35.2634 479.855 32.23C479.855 29.1967 480.158 26.575 480.765 24.365C481.415 22.155 482.282 20.335 483.365 18.905C484.492 17.475 485.813 16.4134 487.33 15.72C488.89 15.0267 490.602 14.68 492.465 14.68C493.808 14.68 495 14.8534 496.04 15.2C497.08 15.5467 497.99 16.0234 498.77 16.63C499.593 17.2367 500.287 17.9734 500.85 18.84C501.457 19.6634 501.977 20.5734 502.41 21.57H502.865V0.900024H512.485V49H502.865V42.89ZM496.625 42.305C498.315 42.305 499.767 41.8934 500.98 41.07C502.237 40.2467 502.865 38.9467 502.865 37.17V27.29C502.865 25.5134 502.237 24.2134 500.98 23.39C499.767 22.5667 498.315 22.155 496.625 22.155C494.458 22.155 492.79 22.8267 491.62 24.17C490.45 25.47 489.865 27.29 489.865 29.63V34.83C489.865 37.17 490.45 39.0117 491.62 40.355C492.79 41.655 494.458 42.305 496.625 42.305Z" fill="#682AE9"/>
<path d="M460.705 49.7801C455.072 49.7801 450.804 48.2201 447.9 45.1001C444.997 41.9801 443.545 37.7334 443.545 32.3601C443.545 29.6301 443.914 27.1817 444.65 25.0151C445.43 22.8051 446.514 20.9417 447.9 19.4251C449.33 17.8651 451.042 16.6951 453.035 15.9151C455.072 15.0917 457.347 14.6801 459.86 14.6801C462.374 14.6801 464.627 15.0917 466.62 15.9151C468.614 16.6951 470.304 17.8217 471.69 19.2951C473.077 20.7684 474.139 22.5667 474.875 24.6901C475.655 26.7701 476.045 29.1101 476.045 31.7101V34.5701H453.1V35.1551C453.1 37.3217 453.772 39.0767 455.115 40.4201C456.459 41.7201 458.43 42.3701 461.03 42.3701C463.024 42.3701 464.735 42.0017 466.165 41.2651C467.595 40.4851 468.83 39.4667 469.87 38.2101L475.07 43.8651C473.77 45.4684 471.95 46.8551 469.61 48.0251C467.27 49.1951 464.302 49.7801 460.705 49.7801ZM459.925 21.5701C457.845 21.5701 456.177 22.2201 454.92 23.5201C453.707 24.7767 453.1 26.4884 453.1 28.6551V29.1751H466.62V28.6551C466.62 26.4451 466.014 24.7117 464.8 23.4551C463.63 22.1984 462.005 21.5701 459.925 21.5701Z" fill="#682AE9"/>
<path d="M405.221 49.0001V15.4601H412.956V20.4001H413.411C413.931 18.8401 414.667 17.4967 415.621 16.3701C416.617 15.2434 418.004 14.6801 419.781 14.6801C423.031 14.6801 425.024 16.5867 425.761 20.4001H426.151C426.411 19.6201 426.736 18.8834 427.126 18.1901C427.516 17.4967 427.992 16.8901 428.556 16.3701C429.119 15.8501 429.791 15.4384 430.571 15.1351C431.351 14.8317 432.261 14.6801 433.301 14.6801C437.981 14.6801 440.321 18.1251 440.321 25.0151V49.0001H432.586V25.9901C432.586 24.4301 432.304 23.3467 431.741 22.7401C431.221 22.0901 430.527 21.7651 429.661 21.7651C428.837 21.7651 428.122 22.0467 427.516 22.6101C426.952 23.1301 426.671 23.9534 426.671 25.0801V49.0001H418.871V25.9901C418.871 24.4301 418.611 23.3467 418.091 22.7401C417.614 22.0901 416.942 21.7651 416.076 21.7651C415.209 21.7651 414.472 22.0467 413.866 22.6101C413.259 23.1301 412.956 23.9534 412.956 25.0801V49.0001H405.221Z" fill="#682AE9"/>
<path d="M368.196 49.0001V15.4601H375.931V20.4001H376.386C376.906 18.8401 377.643 17.4967 378.596 16.3701C379.593 15.2434 380.979 14.6801 382.756 14.6801C386.006 14.6801 387.999 16.5867 388.736 20.4001H389.126C389.386 19.6201 389.711 18.8834 390.101 18.1901C390.491 17.4967 390.968 16.8901 391.531 16.3701C392.094 15.8501 392.766 15.4384 393.546 15.1351C394.326 14.8317 395.236 14.6801 396.276 14.6801C400.956 14.6801 403.296 18.1251 403.296 25.0151V49.0001H395.561V25.9901C395.561 24.4301 395.279 23.3467 394.716 22.7401C394.196 22.0901 393.503 21.7651 392.636 21.7651C391.813 21.7651 391.098 22.0467 390.491 22.6101C389.928 23.1301 389.646 23.9534 389.646 25.0801V49.0001H381.846V25.9901C381.846 24.4301 381.586 23.3467 381.066 22.7401C380.589 22.0901 379.918 21.7651 379.051 21.7651C378.184 21.7651 377.448 22.0467 376.841 22.6101C376.234 23.1301 375.931 23.9534 375.931 25.0801V49.0001H368.196Z" fill="#682AE9"/>
<path d="M360.877 49.0001C358.883 49.0001 357.28 48.5017 356.067 47.5051C354.853 46.4651 354.138 44.9917 353.922 43.0851H353.597C352.99 45.2951 351.777 46.9634 349.957 48.09C348.18 49.2167 345.992 49.7801 343.392 49.7801C340.142 49.7801 337.52 48.9134 335.527 47.1801C333.577 45.4034 332.602 42.9334 332.602 39.7701C332.602 36.2601 333.88 33.6601 336.437 31.9701C338.993 30.2801 342.742 29.4351 347.682 29.4351H353.077V27.7451C353.077 25.7517 352.6 24.2567 351.647 23.2601C350.737 22.2201 349.177 21.7001 346.967 21.7001C344.93 21.7001 343.283 22.0901 342.027 22.8701C340.77 23.6501 339.687 24.6684 338.777 25.9251L333.512 21.2451C334.638 19.3384 336.393 17.7784 338.777 16.5651C341.203 15.3084 344.302 14.6801 348.072 14.6801C352.665 14.6801 356.24 15.7417 358.797 17.8651C361.397 19.9451 362.697 23.1084 362.697 27.3551V42.0451H366.402V49.0001H360.877ZM347.032 43.4751C348.722 43.4751 350.152 43.0634 351.322 42.2401C352.492 41.4167 353.077 40.2251 353.077 38.6651V34.6351H347.942C343.998 34.6351 342.027 35.9567 342.027 38.6001V39.9001C342.027 41.0701 342.482 41.9584 343.392 42.5651C344.302 43.1717 345.515 43.4751 347.032 43.4751Z" fill="#682AE9"/>
<path d="M296.422 0.900024H306.042V21.57H306.432C306.822 20.6167 307.299 19.7284 307.862 18.905C308.425 18.0817 309.097 17.3667 309.877 16.76C310.7 16.11 311.632 15.6117 312.672 15.265C313.755 14.875 314.969 14.68 316.312 14.68C317.915 14.68 319.389 14.9617 320.732 15.525C322.075 16.045 323.224 16.8467 324.177 17.93C325.13 19.0134 325.867 20.335 326.387 21.895C326.95 23.455 327.232 25.2534 327.232 27.29V49H317.612V28.59C317.612 24.2567 315.727 22.09 311.957 22.09C311.22 22.09 310.484 22.1984 309.747 22.415C309.054 22.5884 308.425 22.8917 307.862 23.325C307.299 23.715 306.844 24.2134 306.497 24.82C306.194 25.4267 306.042 26.1417 306.042 26.965V49H296.422V0.900024Z" fill="#682AE9"/>
<path d="M280.327 42.89H279.937C279.201 44.7966 278.031 46.4216 276.427 47.765C274.867 49.1083 272.744 49.78 270.057 49.78C268.454 49.78 266.981 49.52 265.637 49C264.294 48.4366 263.146 47.6133 262.192 46.53C261.239 45.4466 260.481 44.125 259.917 42.565C259.397 41.005 259.137 39.2066 259.137 37.17V15.46H268.757V35.87C268.757 40.2033 270.642 42.37 274.412 42.37C275.149 42.37 275.864 42.2833 276.557 42.11C277.294 41.8933 277.922 41.59 278.442 41.2C279.006 40.7666 279.461 40.2466 279.807 39.64C280.154 39.0333 280.327 38.3183 280.327 37.495V15.46H289.947V49H280.327V42.89Z" fill="#682AE9"/>
<path d="M246.163 28.785L246.683 16.11H246.098L237.648 39.445L229.198 16.11H228.613L229.133 28.785V49H220.683V3.63H232.188L237.778 18.905H238.298L243.888 3.63H254.613V49H246.163V28.785Z" fill="#682AE9"/>
<path d="M165.678 11.1701C163.512 11.1701 161.995 10.7367 161.128 9.87006C160.305 8.96006 159.893 7.87673 159.893 6.62006V4.73506C159.893 3.43506 160.305 2.35173 161.128 1.48506C161.995 0.618391 163.512 0.185059 165.678 0.185059C167.845 0.185059 169.34 0.618391 170.163 1.48506C171.03 2.35173 171.464 3.43506 171.464 4.73506V6.62006C171.464 7.87673 171.03 8.96006 170.163 9.87006C169.34 10.7367 167.845 11.1701 165.678 11.1701ZM150.208 41.5251H160.868V22.9351H150.208V15.4601H170.488V41.5251H180.368V49.0001H150.208V41.5251Z" fill="#682AE9"/>
<path d="M111.364 49V41.005L130.019 22.935H112.014V15.46H141.134V23.455L122.479 41.525H141.784V49H111.364Z" fill="#682AE9"/>
<path d="M101.704 49.0001C99.7109 49.0001 98.1075 48.5017 96.8942 47.5051C95.6809 46.4651 94.9659 44.9917 94.7492 43.0851H94.4242C93.8175 45.2951 92.6042 46.9634 90.7842 48.09C89.0075 49.2167 86.8192 49.7801 84.2192 49.7801C80.9692 49.7801 78.3475 48.9134 76.3542 47.1801C74.4042 45.4034 73.4292 42.9334 73.4292 39.7701C73.4292 36.2601 74.7075 33.6601 77.2642 31.9701C79.8209 30.2801 83.5692 29.4351 88.5092 29.4351H93.9042V27.7451C93.9042 25.7517 93.4275 24.2567 92.4742 23.2601C91.5642 22.2201 90.0042 21.7001 87.7942 21.7001C85.7575 21.7001 84.1109 22.0901 82.8542 22.8701C81.5975 23.6501 80.5142 24.6684 79.6042 25.9251L74.3392 21.2451C75.4659 19.3384 77.2209 17.7784 79.6042 16.5651C82.0309 15.3084 85.1292 14.6801 88.8992 14.6801C93.4925 14.6801 97.0675 15.7417 99.6242 17.8651C102.224 19.9451 103.524 23.1084 103.524 27.3551V42.0451H107.229V49.0001H101.704ZM87.8592 43.4751C89.5492 43.4751 90.9792 43.0634 92.1492 42.2401C93.3192 41.4167 93.9042 40.2251 93.9042 38.6651V34.6351H88.7692C84.8259 34.6351 82.8542 35.9567 82.8542 38.6001V39.9001C82.8542 41.0701 83.3092 41.9584 84.2192 42.5651C85.1292 43.1717 86.3425 43.4751 87.8592 43.4751Z" fill="#682AE9"/>
<path d="M64.6795 49.0001C62.6862 49.0001 61.0829 48.5017 59.8695 47.5051C58.6562 46.4651 57.9412 44.9917 57.7245 43.0851H57.3995C56.7929 45.2951 55.5795 46.9634 53.7595 48.09C51.9829 49.2167 49.7945 49.7801 47.1945 49.7801C43.9445 49.7801 41.3229 48.9134 39.3295 47.1801C37.3795 45.4034 36.4045 42.9334 36.4045 39.7701C36.4045 36.2601 37.6829 33.6601 40.2395 31.9701C42.7962 30.2801 46.5445 29.4351 51.4845 29.4351H56.8795V27.7451C56.8795 25.7517 56.4029 24.2567 55.4495 23.2601C54.5395 22.2201 52.9795 21.7001 50.7695 21.7001C48.7329 21.7001 47.0862 22.0901 45.8295 22.8701C44.5729 23.6501 43.4895 24.6684 42.5795 25.9251L37.3145 21.2451C38.4412 19.3384 40.1962 17.7784 42.5795 16.5651C45.0062 15.3084 48.1045 14.6801 51.8745 14.6801C56.4679 14.6801 60.0429 15.7417 62.5995 17.8651C65.1995 19.9451 66.4995 23.1084 66.4995 27.3551V42.0451H70.2045V49.0001H64.6795ZM50.8345 43.4751C52.5245 43.4751 53.9545 43.0634 55.1245 42.2401C56.2945 41.4167 56.8795 40.2251 56.8795 38.6651V34.6351H51.7445C47.8012 34.6351 45.8295 35.9567 45.8295 38.6001V39.9001C45.8295 41.0701 46.2845 41.9584 47.1945 42.5651C48.1045 43.1717 49.3179 43.4751 50.8345 43.4751Z" fill="#682AE9"/>
<path d="M10.5599 49H0.939941V3.63H18.4899C20.6999 3.63 22.6716 3.97667 24.4049 4.67C26.1383 5.32 27.5899 6.27334 28.7599 7.53C29.9733 8.78667 30.8833 10.3033 31.4899 12.08C32.0966 13.8567 32.3999 15.85 32.3999 18.06C32.3999 21.2667 31.7066 24.0183 30.3199 26.315C28.9333 28.6117 26.9616 30.1283 24.4049 30.865L33.3099 49H22.6499L15.0449 32.165H10.5599V49ZM16.1499 24.625C18.4466 24.625 20.0283 24.1917 20.8949 23.325C21.8049 22.4583 22.2599 21.0283 22.2599 19.035V17.085C22.2599 15.0917 21.8049 13.6617 20.8949 12.795C20.0283 11.9283 18.4466 11.495 16.1499 11.495H10.5599V24.625H16.1499Z" fill="#682AE9"/>
</svg>
